<svg version="1.2" xmlns="http://www.w3.org/2000/svg" viewBox="0 0 135 135" width="135" height="135">
    <defs>
        <linearGradient id="circleGradient" x1="0" y1="0" x2="1" y2="1">
            <stop offset="0%" stop-color="#0284C7" />
            <stop offset="100%" stop-color="#2563EB" />
        </linearGradient>
    </defs>
    <circle cx="67" cy="67" r="66.7" fill="url(#circleGradient)" />
    <path id="&gt;" fill="#ffffff" d="m89.3 64.9q0 3-0.6 5.3h-6.6q0.5 2.1 0.5 5.3 0 3-0.5 5.3h-6.6q0.5 2.1 0.5 5.3 0 3-0.5 5.3h-6.6q0.5 2.1 0.5 5.3 0 3-0.5 5.3h-10.6q-0.6-2.3-0.6-5.3 0-3.2 0.6-5.3h6.6q-0.5-2.3-0.5-5.3 0-3.2 0.5-5.3h6.6q-0.5-2.3-0.5-5.3 0-3.2 0.5-5.3h6.6q-0.5-2.3-0.5-5.3 0-3.2 0.5-5.3h-6.6q-0.5-2.3-0.5-5.3 0-3.2 0.5-5.3h-6.6q-0.5-2.3-0.5-5.3 0-3.2 0.5-5.3h-6.6q-0.6-2.3-0.6-5.3 0-3.2 0.6-5.3h10.6q0.5 2.1 0.5 5.3 0 3-0.5 5.3h6.6q0.5 2.1 0.5 5.3 0 3-0.5 5.3h6.6q0.5 2.1 0.5 5.3 0 3-0.5 5.3h6.6q0.6 2.1 0.6 5.3z"/>
</svg>