<svg version="1.2" xmlns="http://www.w3.org/2000/svg" viewBox="0 0 512 134" width="512" height="134">
	<title>-45gkM7-mantine</title>
	<style>
		.s0 { fill: #000000 } 
		.s1 { fill: #ffffff } 
	</style>
	<g>
		<g>
			<path class="s0" d="m133.3 67c0-37-29.9-67-66.7-67-36.8 0-66.6 30-66.6 67 0 37 29.8 67 66.6 67 36.8 0 66.7-30 66.7-67z"/>
		</g>
		<path id="ifConfig" class="s0" aria-label="ifConfig"  d="m178 46.1h-8.4q-0.4-1.8-0.4-4.2 0-2.5 0.4-4.1h8.4q0.4 1.6 0.4 4.1 0 2.4-0.4 4.2zm8.3 41.6q0.4 1.6 0.4 4.1 0 2.4-0.4 4.2h-25q-0.4-1.8-0.4-4.2 0-2.5 0.4-4.1h8.3q-0.4-1.8-0.4-4.2 0-2.5 0.4-4.1-0.4-1.8-0.4-4.2 0-2.5 0.4-4.2-0.4-1.7-0.4-4.1 0-2.5 0.4-4.2h-6.2q-0.4-1.7-0.4-4.1 0-2.5 0.4-4.2h14.6q0.4 1.7 0.4 4.2 0 2.4-0.4 4.1 0.4 1.7 0.4 4.2 0 2.4-0.4 4.1 0.4 1.7 0.4 4.2 0 2.4-0.4 4.2 0.4 1.6 0.4 4.1 0 2.4-0.4 4.2zm31.2-33.3h12.4q0.5 1.7 0.5 4.2 0 2.4-0.5 4.1h-12.4q0.4 1.7 0.4 4.2 0 2.4-0.4 4.1 0.4 1.7 0.4 4.2 0 2.4-0.4 4.2 0.4 1.6 0.4 4.1 0 2.4-0.4 4.2h8.3q0.4 1.6 0.4 4.1 0 2.4-0.4 4.2h-20.8q-0.4-1.8-0.4-4.2 0-2.5 0.4-4.1h4.1q-0.4-1.8-0.4-4.2 0-2.5 0.4-4.1-0.4-1.8-0.4-4.2 0-2.5 0.4-4.2-0.4-1.7-0.4-4.1 0-2.5 0.4-4.2h-4.1q-0.4-1.7-0.4-4.1 0-2.5 0.4-4.2h4.1q-0.4-1.8-0.4-4.2 0-2.5 0.4-4.1h4.2q-0.4-1.8-0.4-4.2 0-2.5 0.4-4.1h16.6q0.5 1.6 0.5 4.1 0 2.4-0.5 4.2h-12.4q0.4 1.6 0.4 4.1 0 2.4-0.4 4.2zm52 25h8.3q0.4 1.6 0.4 4.1 0 2.4-0.4 4.2h-4.2q0.4 1.6 0.4 4.1 0 2.4-0.4 4.2h-20.8q-0.4-1.8-0.4-4.2 0-2.5 0.4-4.1h-4.1q-0.5-1.8-0.5-4.2 0-2.5 0.5-4.1h-4.2q-0.4-1.8-0.4-4.2 0-2.5 0.4-4.2-0.4-1.7-0.4-4.1 0-2.5 0.4-4.2-0.4-1.7-0.4-4.1 0-2.5 0.4-4.2h4.2q-0.5-1.8-0.5-4.2 0-2.5 0.5-4.1h4.1q-0.4-1.8-0.4-4.2 0-2.5 0.4-4.1h20.8q0.4 1.6 0.4 4.1 0 2.4-0.4 4.2h4.2q0.4 1.6 0.4 4.1 0 2.4-0.4 4.2h-8.3q-0.5-1.8-0.5-4.2 0-2.5 0.5-4.1h-12.5q0.4 1.6 0.4 4.1 0 2.4-0.4 4.2h-4.2q0.4 1.7 0.4 4.2 0 2.4-0.4 4.1 0.4 1.7 0.4 4.2 0 2.4-0.4 4.1 0.4 1.7 0.4 4.2 0 2.4-0.4 4.2h4.2q0.4 1.6 0.4 4.1 0 2.4-0.4 4.2h12.5q-0.5-1.8-0.5-4.2 0-2.5 0.5-4.1zm52.4-4.2q0 2.4-0.4 4.2h-3.2q0.5 1.6 0.5 4.1 0 2.4-0.5 4.2h-5.2q0.5 1.6 0.5 4.1 0 2.4-0.5 4.2h-16.6q-0.4-1.8-0.4-4.2 0-2.5 0.4-4.1h-5.2q-0.4-1.8-0.4-4.2 0-2.5 0.4-4.1h-3.1q-0.4-1.8-0.4-4.2 0-2.5 0.4-4.2h3.1q-0.4-1.7-0.4-4.1 0-2.5 0.4-4.2h5.2q-0.4-1.7-0.4-4.1 0-2.5 0.4-4.2h16.6q0.5 1.7 0.5 4.2 0 2.4-0.5 4.1h5.2q0.5 1.7 0.5 4.2 0 2.4-0.5 4.1h3.2q0.4 1.7 0.4 4.2zm-11.9 4.2h3.1q-0.4-1.8-0.4-4.2 0-2.5 0.4-4.2h-3.1q-0.4-1.7-0.4-4.1 0-2.5 0.4-4.2h-10.4q0.4 1.7 0.4 4.2 0 2.4-0.4 4.1h-3.1q0.4 1.7 0.4 4.2 0 2.4-0.4 4.2h3.1q0.4 1.6 0.4 4.1 0 2.4-0.4 4.2h10.4q-0.4-1.8-0.4-4.2 0-2.5 0.4-4.1zm29.6-20.8q0 2.4-0.5 4.1h4.2q0.4 1.7 0.4 4.2 0 2.4-0.4 4.1h-3.1q0.4 1.7 0.4 4.2 0 2.4-0.4 4.2 0.4 1.6 0.4 4.1 0 2.4-0.4 4.2 0.4 1.6 0.4 4.1 0 2.4-0.4 4.2h-8.3q-0.5-1.8-0.5-4.2 0-2.5 0.5-4.1-0.5-1.8-0.5-4.2 0-2.5 0.5-4.1-0.5-1.8-0.5-4.2 0-2.5 0.5-4.2-0.5-1.7-0.5-4.1 0-2.5 0.5-4.2-0.5-1.7-0.5-4.1 0-2.5 0.5-4.2h7.2q0.5 1.7 0.5 4.2zm25.5 12.4q0.5 1.7 0.5 4.2 0 2.4-0.5 4.2 0.5 1.6 0.5 4.1 0 2.4-0.5 4.2 0.5 1.6 0.5 4.1 0 2.4-0.5 4.2h-8.3q-0.4-1.8-0.4-4.2 0-2.5 0.4-4.1-0.4-1.8-0.4-4.2 0-2.5 0.4-4.1-0.4-1.8-0.4-4.2 0-2.5 0.4-4.2-0.4-1.7-0.4-4.1 0-2.5 0.4-4.2h-13.5q-0.4-1.7-0.4-4.1 0-2.5 0.4-4.2h16.6q0.5 1.7 0.5 4.2 0 2.4-0.5 4.1h5.2q0.5 1.7 0.5 4.2 0 2.4-0.5 4.1zm27.1-16.6h12.5q0.4 1.7 0.4 4.2 0 2.4-0.4 4.1h-12.5q0.4 1.7 0.4 4.2 0 2.4-0.4 4.1 0.4 1.7 0.4 4.2 0 2.4-0.4 4.2 0.4 1.6 0.4 4.1 0 2.4-0.4 4.2h8.3q0.4 1.6 0.4 4.1 0 2.4-0.4 4.2h-20.8q-0.4-1.8-0.4-4.2 0-2.5 0.4-4.1h4.2q-0.5-1.8-0.5-4.2 0-2.5 0.5-4.1-0.5-1.8-0.5-4.2 0-2.5 0.5-4.2-0.5-1.7-0.5-4.1 0-2.5 0.5-4.2h-4.2q-0.4-1.7-0.4-4.1 0-2.5 0.4-4.2h4.2q-0.5-1.8-0.5-4.2 0-2.5 0.5-4.1h4.1q-0.4-1.8-0.4-4.2 0-2.5 0.4-4.1h16.7q0.4 1.6 0.4 4.1 0 2.4-0.4 4.2h-12.5q0.4 1.6 0.4 4.1 0 2.4-0.4 4.2zm47.8-8.3h-8.3q-0.4-1.8-0.4-4.2 0-2.5 0.4-4.1h8.3q0.4 1.6 0.4 4.1 0 2.4-0.4 4.2zm8.3 41.6q0.5 1.6 0.5 4.1 0 2.4-0.5 4.2h-24.9q-0.4-1.8-0.4-4.2 0-2.5 0.4-4.1h8.3q-0.4-1.8-0.4-4.2 0-2.5 0.4-4.1-0.4-1.8-0.4-4.2 0-2.5 0.4-4.2-0.4-1.7-0.4-4.1 0-2.5 0.4-4.2h-6.2q-0.5-1.7-0.5-4.1 0-2.5 0.5-4.2h14.5q0.4 1.7 0.4 4.2 0 2.4-0.4 4.1 0.4 1.7 0.4 4.2 0 2.4-0.4 4.1 0.4 1.7 0.4 4.2 0 2.4-0.4 4.2 0.4 1.6 0.4 4.1 0 2.4-0.4 4.2zm47.9-25q0.4 1.7 0.4 4.2 0 2.4-0.4 4.1 0.4 1.7 0.4 4.2 0 2.4-0.4 4.2 0.4 1.6 0.4 4.1 0 2.4-0.4 4.2 0.4 1.6 0.4 4.1 0 2.4-0.4 4.2h-4.2q0.4 1.7 0.4 4.2 0 2.4-0.4 4.1h-4.2q0.5 1.7 0.5 4.2 0 2.4-0.5 4.1h-16.6q-0.4-1.7-0.4-4.1 0-2.5 0.4-4.2h12.5q-0.4-1.7-0.4-4.1 0-2.5 0.4-4.2h4.1q-0.4-1.8-0.4-4.2 0-2.5 0.4-4.1h-4.1q-0.4-1.8-0.4-4.2 0-2.5 0.4-4.1h4.1q-0.4-1.8-0.4-4.2 0-2.5 0.4-4.2-0.4-1.7-0.4-4.1 0-2.5 0.4-4.2h-13.5q0.4 1.7 0.4 4.2 0 2.4-0.4 4.1h-3.1q0.4 1.7 0.4 4.2 0 2.4-0.4 4.2h3.1q0.4 1.6 0.4 4.1 0 2.4-0.4 4.2h9.4q0.4 1.6 0.4 4.1 0 2.4-0.4 4.2h-12.5q-0.4-1.8-0.4-4.2 0-2.5 0.4-4.1h-5.2q-0.4-1.8-0.4-4.2 0-2.5 0.4-4.1h-3.1q-0.4-1.8-0.4-4.2 0-2.5 0.4-4.2h3.1q-0.4-1.7-0.4-4.1 0-2.5 0.4-4.2h5.2q-0.4-1.7-0.4-4.1 0-2.5 0.4-4.2h25q0.4 1.7 0.4 4.2 0 2.4-0.4 4.1z"/>
		<path id="&gt;" class="s1" aria-label="&gt;"  d="m89.3 64.9q0 3-0.6 5.3h-6.6q0.5 2.1 0.5 5.3 0 3-0.5 5.3h-6.6q0.5 2.1 0.5 5.3 0 3-0.5 5.3h-6.6q0.5 2.1 0.5 5.3 0 3-0.5 5.3h-10.6q-0.6-2.3-0.6-5.3 0-3.2 0.6-5.3h6.6q-0.5-2.3-0.5-5.3 0-3.2 0.5-5.3h6.6q-0.5-2.3-0.5-5.3 0-3.2 0.5-5.3h6.6q-0.5-2.3-0.5-5.3 0-3.2 0.5-5.3h-6.6q-0.5-2.3-0.5-5.3 0-3.2 0.5-5.3h-6.6q-0.5-2.3-0.5-5.3 0-3.2 0.5-5.3h-6.6q-0.6-2.3-0.6-5.3 0-3.2 0.6-5.3h10.6q0.5 2.1 0.5 5.3 0 3-0.5 5.3h6.6q0.5 2.1 0.5 5.3 0 3-0.5 5.3h6.6q0.5 2.1 0.5 5.3 0 3-0.5 5.3h6.6q0.6 2.1 0.6 5.3z"/>
	</g>
</svg>